<svg id="ehMbO3Bvmw51" xmlns="http://www.w3.org/2000/svg" xmlns:xlink="http://www.w3.org/1999/xlink" viewBox="0 0 458 458" shape-rendering="geometricPrecision" text-rendering="geometricPrecision"><defs><linearGradient id="ehMbO3Bvmw54-fill" x1="130910.5" y1="189748.4" x2="130910.5" y2="249125" spreadMethod="pad" gradientUnits="userSpaceOnUse" gradientTransform="translate(0 0)"><stop id="ehMbO3Bvmw54-fill-0" offset="0%" stop-color="#ffda00"/><stop id="ehMbO3Bvmw54-fill-1" offset="100%" stop-color="#e7a200"/></linearGradient><linearGradient id="ehMbO3Bvmw55-fill" x1="42079.9" y1="44344.8" x2="42079.9" y2="70901.8" spreadMethod="pad" gradientUnits="userSpaceOnUse" gradientTransform="translate(0 0)"><stop id="ehMbO3Bvmw55-fill-0" offset="0%" stop-color="#ffda00"/><stop id="ehMbO3Bvmw55-fill-1" offset="100%" stop-color="#e7a200"/></linearGradient><linearGradient id="ehMbO3Bvmw56-fill" x1="42173.1" y1="50556.9" x2="42173.1" y2="77115" spreadMethod="pad" gradientUnits="userSpaceOnUse" gradientTransform="translate(0 0)"><stop id="ehMbO3Bvmw56-fill-0" offset="0%" stop-color="#ffda00"/><stop id="ehMbO3Bvmw56-fill-1" offset="100%" stop-color="#e7a200"/></linearGradient><linearGradient id="ehMbO3Bvmw57-fill" x1="24328.2" y1="33359.9" x2="24328.2" y2="56057.4" spreadMethod="pad" gradientUnits="userSpaceOnUse" gradientTransform="translate(0 0)"><stop id="ehMbO3Bvmw57-fill-0" offset="0%" stop-color="#ffda00"/><stop id="ehMbO3Bvmw57-fill-1" offset="100%" stop-color="#e7a200"/></linearGradient><linearGradient id="ehMbO3Bvmw58-fill" x1="24583.7" y1="47860.3" x2="24583.7" y2="70558.9" spreadMethod="pad" gradientUnits="userSpaceOnUse" gradientTransform="translate(0 0)"><stop id="ehMbO3Bvmw58-fill-0" offset="0%" stop-color="#ffda00"/><stop id="ehMbO3Bvmw58-fill-1" offset="100%" stop-color="#e7a200"/></linearGradient><linearGradient id="ehMbO3Bvmw59-fill" x1="12686.2" y1="35784.8" x2="12686.2" y2="51815.1" spreadMethod="pad" gradientUnits="userSpaceOnUse" gradientTransform="translate(0 0)"><stop id="ehMbO3Bvmw59-fill-0" offset="0%" stop-color="#ffda00"/><stop id="ehMbO3Bvmw59-fill-1" offset="100%" stop-color="#e7a200"/></linearGradient><linearGradient id="ehMbO3Bvmw510-fill" x1="42169.7" y1="50903.6" x2="42169.7" y2="77460.9" spreadMethod="pad" gradientUnits="userSpaceOnUse" gradientTransform="translate(0 0)"><stop id="ehMbO3Bvmw510-fill-0" offset="0%" stop-color="#ffda00"/><stop id="ehMbO3Bvmw510-fill-1" offset="100%" stop-color="#e7a200"/></linearGradient><linearGradient id="ehMbO3Bvmw511-fill" x1="42085.5" y1="44693.2" x2="42085.5" y2="71249.7" spreadMethod="pad" gradientUnits="userSpaceOnUse" gradientTransform="translate(0 0)"><stop id="ehMbO3Bvmw511-fill-0" offset="0%" stop-color="#ffda00"/><stop id="ehMbO3Bvmw511-fill-1" offset="100%" stop-color="#e7a200"/></linearGradient><linearGradient id="ehMbO3Bvmw512-fill" x1="12687.5" y1="35881" x2="12687.5" y2="51913" spreadMethod="pad" gradientUnits="userSpaceOnUse" gradientTransform="translate(0 0)"><stop id="ehMbO3Bvmw512-fill-0" offset="0%" stop-color="#ffda00"/><stop id="ehMbO3Bvmw512-fill-1" offset="100%" stop-color="#e7a200"/></linearGradient><linearGradient id="ehMbO3Bvmw513-fill" x1="24581.5" y1="48114.4" x2="24581.5" y2="70811.9" spreadMethod="pad" gradientUnits="userSpaceOnUse" gradientTransform="translate(0 0)"><stop id="ehMbO3Bvmw513-fill-0" offset="0%" stop-color="#ffda00"/><stop id="ehMbO3Bvmw513-fill-1" offset="100%" stop-color="#e7a200"/></linearGradient><linearGradient id="ehMbO3Bvmw514-fill" x1="12333.9" y1="21886.7" x2="12333.9" y2="37914.9" spreadMethod="pad" gradientUnits="userSpaceOnUse" gradientTransform="translate(0 0)"><stop id="ehMbO3Bvmw514-fill-0" offset="0%" stop-color="#ffda00"/><stop id="ehMbO3Bvmw514-fill-1" offset="100%" stop-color="#e7a200"/></linearGradient><linearGradient id="ehMbO3Bvmw515-fill" x1="12339.1" y1="21795.5" x2="12339.1" y2="37826" spreadMethod="pad" gradientUnits="userSpaceOnUse" gradientTransform="translate(0 0)"><stop id="ehMbO3Bvmw515-fill-0" offset="0%" stop-color="#ffda00"/><stop id="ehMbO3Bvmw515-fill-1" offset="100%" stop-color="#e7a200"/></linearGradient><linearGradient id="ehMbO3Bvmw516-fill" x1="24325.2" y1="33610.9" x2="24325.2" y2="56303" spreadMethod="pad" gradientUnits="userSpaceOnUse" gradientTransform="translate(0 0)"><stop id="ehMbO3Bvmw516-fill-0" offset="0%" stop-color="#ffda00"/><stop id="ehMbO3Bvmw516-fill-1" offset="100%" stop-color="#e7a200"/></linearGradient></defs><path d="M3223.2,228.8c0,73.5-59.5,133-133,133-73.4,0-132.9-59.5-132.9-133c0-73.4,59.5-132.9,132.9-132.9c73.5,0,133,59.5,133,132.9Z" transform="translate(-2861.220337 0.146187)" fill="url(#ehMbO3Bvmw54-fill)"/><path d="M3048.4,87.8c-6.8,0-12.9-4.5-14.8-11.3l-9.6-36c-2.2-8.1,2.6-16.5,10.8-18.7c8.1-2.1,16.5,2.7,18.6,10.8l9.7,36c2.2,8.2-2.7,16.5-10.8,18.7q-2,.5-3.9.5Z" transform="translate(-2861.220337 0.146187)" fill="url(#ehMbO3Bvmw55-fill)"/><path d="M3132.1,87.8q-1.9,0-3.9-.5c-8.2-2.2-13-10.5-10.8-18.7l9.6-36c2.2-8.1,10.6-12.9,18.7-10.8c8.1,2.2,13,10.6,10.8,18.7l-9.7,36c-1.8,6.8-7.9,11.3-14.7,11.3Z" transform="translate(-2861.220337 0.146186)" fill="url(#ehMbO3Bvmw56-fill)"/><path d="M2975.9,129.7c-3.9,0-7.8-1.5-10.8-4.5l-26.4-26.3c-5.9-6-5.9-15.6,0-21.6c6-5.9,15.6-5.9,21.6,0l26.3,26.4c6,5.9,6,15.6,0,21.5-2.9,3-6.8,4.5-10.7,4.5Z" transform="translate(-2861.220337 0.146186)" fill="url(#ehMbO3Bvmw57-fill)"/><path d="M3204.6,129.7c-3.9,0-7.8-1.5-10.8-4.5-5.9-5.9-5.9-15.6,0-21.5l26.4-26.4c6-5.9,15.6-5.9,21.6,0c5.9,6,5.9,15.6,0,21.6l-26.4,26.3c-3,3-6.9,4.5-10.8,4.5Z" transform="translate(-2861.220337 0.146186)" fill="url(#ehMbO3Bvmw58-fill)"/><path d="M3246.5,202.2c-6.7,0-12.9-4.5-14.7-11.3-2.2-8.1,2.6-16.5,10.8-18.7l36-9.6c8.1-2.2,16.5,2.6,18.6,10.8c2.2,8.1-2.6,16.5-10.7,18.6l-36,9.7q-2,.5-4,.5Z" transform="translate(-2861.220337 0.146188)" fill="url(#ehMbO3Bvmw59-fill)"/><path d="M3141.8,436.4c-6.8,0-12.9-4.5-14.8-11.3l-9.6-36c-2.2-8.2,2.6-16.5,10.8-18.7c8.1-2.2,16.5,2.6,18.6,10.8l9.7,36c2.2,8.1-2.7,16.5-10.8,18.6q-2,.6-3.9.6Z" transform="translate(-2861.220337 0.146186)" fill="url(#ehMbO3Bvmw510-fill)"/><path d="M3038.7,436.4q-1.9,0-3.9-.6c-8.2-2.1-13-10.5-10.8-18.6l9.6-36c2.2-8.2,10.6-13,18.7-10.8s13,10.5,10.8,18.7l-9.7,36c-1.8,6.8-7.9,11.3-14.7,11.3Z" transform="translate(-2861.220337 0.146186)" fill="url(#ehMbO3Bvmw511-fill)"/><path d="M3282.5,295.6q-1.9,0-3.9-.5l-36-9.7c-8.2-2.1-13-10.5-10.8-18.6c2.2-8.2,10.5-13,18.7-10.8l36,9.6c8.1,2.2,12.9,10.6,10.7,18.7-1.8,6.8-7.9,11.3-14.7,11.3Z" transform="translate(-2861.220337 0.146187)" fill="url(#ehMbO3Bvmw512-fill)"/><path d="M3231,384.8c-3.9,0-7.8-1.5-10.8-4.4L3193.8,354c-5.9-5.9-5.9-15.6,0-21.6c6-5.9,15.6-5.9,21.6,0l26.4,26.4c5.9,6,5.9,15.6,0,21.6-3,2.9-6.9,4.4-10.8,4.4Z" transform="translate(-2861.220337 0.146189)" fill="url(#ehMbO3Bvmw513-fill)"/><path d="M2898,295.6c-6.8,0-12.9-4.5-14.8-11.3-2.1-8.1,2.7-16.5,10.8-18.7l36-9.6c8.2-2.2,16.5,2.6,18.7,10.8c2.2,8.1-2.7,16.5-10.8,18.6l-36,9.7q-2,.5-3.9.5Z" transform="translate(-2861.220337 0.146187)" fill="url(#ehMbO3Bvmw514-fill)"/><path d="M2934,202.2q-2,0-4-.5l-36-9.7c-8.1-2.1-12.9-10.5-10.8-18.6c2.2-8.2,10.6-13,18.7-10.8l36,9.6c8.1,2.2,13,10.6,10.8,18.7-1.8,6.8-8,11.3-14.7,11.3Z" transform="translate(-2861.220337 0.146188)" fill="url(#ehMbO3Bvmw515-fill)"/><path d="M2949.5,384.8c-3.9,0-7.8-1.5-10.8-4.4-5.9-6-5.9-15.6,0-21.6l26.4-26.4c5.9-5.9,15.6-5.9,21.5,0c6,6,6,15.7,0,21.6l-26.3,26.4c-3,2.9-6.9,4.4-10.8,4.4Z" transform="translate(-2861.220337 0.146189)" fill="url(#ehMbO3Bvmw516-fill)"/><path d="M3091.1,336.2c-52.6,0-96.1-25.8-113.8-56.8c13.4,36.6,61.2,74.7,113.8,74.7s100.4-38.1,113.8-74.7c-17.7,31-61.2,56.8-113.8,56.8Z" transform="translate(-2861.220337 0.146189)" fill="#d68c00"/><path d="M3091.1,115.9c-52.6,0-96.1,27.8-113.8,58.8c13.4-36.6,61.2-74.7,113.8-74.7s100.4,38.1,113.8,74.7c-17.7-31-61.2-58.8-113.8-58.8Z" transform="translate(-2861.220337 0.146188)" fill="#fff280"/></svg>
