<svg id="eruCePiNyGm1" xmlns="http://www.w3.org/2000/svg" xmlns:xlink="http://www.w3.org/1999/xlink" viewBox="0 0 64 64" shape-rendering="geometricPrecision" text-rendering="geometricPrecision"><defs><linearGradient id="eruCePiNyGm2-stroke" x1="27.56" y1="17.64" x2="38.27" y2="36.19" spreadMethod="pad" gradientUnits="userSpaceOnUse" gradientTransform="translate(0 0)"><stop id="eruCePiNyGm2-stroke-0" offset="0%" stop-color="#fff"/><stop id="eruCePiNyGm2-stroke-1" offset="45%" stop-color="#fff"/><stop id="eruCePiNyGm2-stroke-2" offset="100%" stop-color="#bec1c6"/></linearGradient><linearGradient id="eruCePiNyGm3-stroke" x1="19.96" y1="29.03" x2="31.37" y2="48.8" spreadMethod="pad" gradientUnits="userSpaceOnUse" gradientTransform="translate(0 0)"><stop id="eruCePiNyGm3-stroke-0" offset="0%" stop-color="#fff"/><stop id="eruCePiNyGm3-stroke-1" offset="45%" stop-color="#fff"/><stop id="eruCePiNyGm3-stroke-2" offset="100%" stop-color="#bec1c6"/></linearGradient></defs><path d="M43.64,20c1.575042-1.643091,4.061041-2.015089,6.048059-.905016s2.973576,3.42206,2.400144,5.624712-2.562131,3.740071-4.838203,3.740304h-35.5" fill="none" stroke="url(#eruCePiNyGm2-stroke)" stroke-width="3" stroke-linecap="round" stroke-miterlimit="10" stroke-dasharray="35,22"/><path d="M29.14,44c1.575042,1.643091,4.061041,2.015089,6.048059.905016s2.973576-3.42206,2.400144-5.624712-2.562131-3.740071-4.838203-3.740304h-21" fill="none" stroke="url(#eruCePiNyGm3-stroke)" stroke-width="3" stroke-linecap="round" stroke-miterlimit="10" stroke-dasharray="24,15"/><path d="M47.73,34.82c.087894.109778.127578.250474.11.39v9.64c.018768.139613-.021045.280771-.11.39-.110708.094135-.255756.137649-.4.12h-.85c-.142424.030271-.290492-.01359-.393451-.116549s-.14682-.251027-.116549-.393451v-7.85l-2.1,1.17c-.131298.099532-.296813.142709-.46.12-.136751-.06004-.244475-.171354-.3-.31l-.38-.67c-.070772-.120542-.09563-.262588-.07-.4.073187-.140228.193626-.250041.34-.31l2.93-1.68c.215119-.137106.464904-.20996.72-.21h.71c.132879-.012163.265348.02722.37.11Zm6.6,0c.087894.109778.127578.250474.11.39v9.64c.018768.139613-.021045.280771-.11.39-.111291.093058-.255863.136429-.4.12h-.85c-.142424.030271-.290492-.01359-.393451-.116549s-.14682-.251027-.116549-.393451v-7.85l-2.1,1.17c-.134371.101128-.303596.144335-.47.12-.134256-.060362-.238712-.172023-.29-.31l-.38-.67c-.070772-.120542-.09563-.262588-.07-.4.069169-.127712.177966-.229489.31-.29l2.93-1.68c.21155-.136817.458064-.209729.71-.21h.72c.140008-.024875.284139.007554.4.09Z" fill="#fbda02"/></svg>
