<svg id="eszA6BY8N0W1" xmlns="http://www.w3.org/2000/svg" xmlns:xlink="http://www.w3.org/1999/xlink" viewBox="0 0 512 512" shape-rendering="geometricPrecision" text-rendering="geometricPrecision"><defs><linearGradient id="eszA6BY8N0W2-fill" x1="-72" y1="-124.7" x2="72" y2="124.7" spreadMethod="pad" gradientUnits="userSpaceOnUse" gradientTransform="translate(0 0)"><stop id="eszA6BY8N0W2-fill-0" offset="0%" stop-color="#6b7280"/><stop id="eszA6BY8N0W2-fill-1" offset="50%" stop-color="#6b7280"/><stop id="eszA6BY8N0W2-fill-2" offset="100%" stop-color="#374151"/></linearGradient></defs><circle r="144" transform="translate(256 256)" fill="url(#eszA6BY8N0W2-fill)" stroke="#e5e7eb" stroke-width="12" stroke-miterlimit="10"/><path d="M259.2,194.857175v-10.4h4.6v18h-4.7l-6.3-10.4v10.4h-4.6v-18h4.7ZM317.928538,257.7v3.3h9.8v4h-14.5v-18h14.2v4h-9.5v3h8.3v3.8ZM256.1,329.128538c-1.93049.103972-3.837755-.461144-5.4-1.6-1.275116-1.105801-2.005295-2.712194-2-4.4h4.4c0,1.6,1.1,2.4,3.1,2.4c1.8,0,2.6-.6,2.6-1.7.017512-.375487-.128362-.740173-.4-1-.48374-.333363-1.02686-.570978-1.6-.7l-3.4-.7c-2.9-.7-4.4-2.4-4.4-4.9-.042255-1.488268.580938-2.917947,1.7-3.9c1.459835-1.105919,3.273877-1.639461,5.1-1.5c1.787503-.073127,3.547934.455003,5,1.5c1.235252.963924,1.970012,2.433444,2,4h-4.3c-.2-1.4-1-2-2.7-2-.560806-.024327-1.116619.114626-1.6.4-.346679.219895-.569118.590626-.6,1c0,.8.5,1.3,1.6,1.6l3.5.8q4.7,1.1,4.7,5.1c.048947,1.61258-.699024,3.145919-2,4.1-1.551197,1.074426-3.415811,1.602147-5.3,1.5ZM196.20003,255l2-8h4.7l-5.2,18h-4.5l-2.5-11.5-2.3,11.5h-4.6l-5.2-18h4.7l2,8l.9,4.2.7-4.3l1.7-7.9h4.4l1.8,8l.6,4.1Z" transform="matrix(1.75 0 0 1.75-190.037499-193.398368)" fill="#9ca3af"/><g transform="matrix(.707107 0.707107-.707107 0.707107 256-106.038672)"><path d="M256,172l-24,84h48l-24-84Z" fill="#ef4444"/><path d="M232,256l24,84l24-84h-48Z" fill="#fff"/><animateTransform additive="sum" attributeName="transform" calcMode="spline" dur="2s" keySplines=".42, 0, .58, 1; .42, 0, .58, 1" repeatCount="indefinite" type="rotate" values="-2 256 256; 2 256 256; -2 256 256"/></g></svg>
