<svg id="eTnaoVqwh9d1" xmlns="http://www.w3.org/2000/svg" xmlns:xlink="http://www.w3.org/1999/xlink" viewBox="0 0 64 64" shape-rendering="geometricPrecision" text-rendering="geometricPrecision"><defs><linearGradient id="eTnaoVqwh9d4-fill" x1="23.73" y1="19.16" x2="39.18" y2="45.93" spreadMethod="pad" gradientUnits="userSpaceOnUse" gradientTransform="translate(0 0)"><stop id="eTnaoVqwh9d4-fill-0" offset="0%" stop-color="rgba(81,90,105,0.05)"/><stop id="eTnaoVqwh9d4-fill-1" offset="45%" stop-color="rgba(107,114,128,0.05)"/><stop id="eTnaoVqwh9d4-fill-2" offset="100%" stop-color="rgba(56,67,84,0.1)"/></linearGradient><linearGradient id="eTnaoVqwh9d4-stroke" x1="23.48" y1="18.73" x2="39.43" y2="46.36" spreadMethod="pad" gradientUnits="userSpaceOnUse" gradientTransform="translate(0 0)"><stop id="eTnaoVqwh9d4-stroke-0" offset="0%" stop-color="#d4d7dd"/><stop id="eTnaoVqwh9d4-stroke-1" offset="45%" stop-color="#d4d7dd"/><stop id="eTnaoVqwh9d4-stroke-2" offset="100%" stop-color="#bec1c6"/></linearGradient></defs><circle r="4.5" transform="translate(32 42)" fill="#ef4444"/><path d="M32,33v9" fill="none" stroke="#ef4444" stroke-width="3" stroke-linecap="round" stroke-miterlimit="10"/><path d="M32.5,29h3.5m3,12.9c0,3.865993-3.134007,7-7,7s-7-3.134007-7-7c-.007506-2.315545,1.111482-4.490111,3-5.83v-17c0-2.209139,1.790861-4,4-4s4,1.790861,4,4v17c1.888518,1.339889,3.007506,3.514455,3,5.83ZM32.5,25h3.5m-3.5-4h3.5" fill="url(#eTnaoVqwh9d4-fill)" stroke="url(#eTnaoVqwh9d4-stroke)" stroke-linecap="round" stroke-linejoin="round"/><path d="M44,26v12l-3-3.45L44,38l3-3.45" transform="matrix(-.004198-.999991 0.999991-.004198 12.18501 73.13396)" fill="none" stroke="#2885c7" stroke-width="2" stroke-linecap="round" stroke-linejoin="round"/><path d="M44,26v12l-3-3.45L44,38l3-3.45" transform="matrix(.015737 0.999876-.999876 0.015737 50.85007-15.378872)" fill="none" stroke="#2885c7" stroke-width="2" stroke-linecap="round" stroke-linejoin="round"/></svg>
