<svg id="e491dxBTLNK1" xmlns="http://www.w3.org/2000/svg" xmlns:xlink="http://www.w3.org/1999/xlink" viewBox="0 0 64 64" shape-rendering="geometricPrecision" text-rendering="geometricPrecision"><defs><linearGradient id="e491dxBTLNK4-fill" x1="23.73" y1="19.16" x2="39.18" y2="45.93" spreadMethod="pad" gradientUnits="userSpaceOnUse" gradientTransform="translate(0 0)"><stop id="e491dxBTLNK4-fill-0" offset="0%" stop-color="rgba(81,90,105,0.05)"/><stop id="e491dxBTLNK4-fill-1" offset="45%" stop-color="rgba(107,114,128,0.05)"/><stop id="e491dxBTLNK4-fill-2" offset="100%" stop-color="rgba(255,255,255,0.1)"/></linearGradient><linearGradient id="e491dxBTLNK4-stroke" x1="23.48" y1="18.73" x2="39.43" y2="46.36" spreadMethod="pad" gradientUnits="userSpaceOnUse" gradientTransform="translate(0 0)"><stop id="e491dxBTLNK4-stroke-0" offset="0%" stop-color="#d4d7dd"/><stop id="e491dxBTLNK4-stroke-1" offset="45%" stop-color="#d4d7dd"/><stop id="e491dxBTLNK4-stroke-2" offset="100%" stop-color="#bec1c6"/></linearGradient></defs><circle r="4.5" transform="translate(32 42)" fill="#ef4444"/><path d="M32,27v15" fill="none" stroke="#ef4444" stroke-width="3" stroke-linecap="round" stroke-miterlimit="10"/><path d="M39,41.9c0,3.865993-3.134007,7-7,7s-7-3.134007-7-7c-.007506-2.315545,1.111482-4.490111,3-5.83v-17c0-2.209139,1.790861-4,4-4s4,1.790861,4,4v17c1.888518,1.339889,3.007506,3.514455,3,5.83ZM32.5,25h3.5m-3.5-4h3.5m-3.5,8h3.5" fill="url(#e491dxBTLNK4-fill)" stroke="url(#e491dxBTLNK4-stroke)" stroke-linecap="round" stroke-linejoin="round"/><path d="M42.44,35c-.659956.683113-1.709344.807823-2.51102.29841s-1.134476-1.512415-.79634-2.400023s1.253928-1.414956,2.191343-1.261858s1.637844.944404,1.676017,1.893471c.021958.545921-.180381,1.07706-.56,1.47Zm-2-.79c.166962.167321.393626.261351.63.261351s.463038-.09403.63-.261351c.166718-.16525.260504-.39026.260504-.625s-.093786-.45975-.260504-.625c-.161297-.176556-.39091-.274961-.63-.27-.238341-.001189-.466488.096588-.63.27-.166825.167183-.260358.39382-.26.63-.002599.209381.07218.412353.21.57ZM45,32.29c.727816-.609341,1.662935-.913881,2.61-.85c1.75,0,2.87.68,3.35,2.06.056385.104381.059297.229471.00783.336363s-.151069.182622-.26783.203637l-.67.23c-.109174.043421-.230826.043421-.34,0-.094573-.06781-.161925-.167066-.19-.28-.296389-.76546-1.075428-1.231235-1.89-1.13-.525569-.0357-1.045723.124621-1.46.45-.362548.331334-.554029.810035-.52,1.3v2.73c-.032547.489732.158686.967813.52,1.3.4105.333348.932554.49783,1.46.46.804055.104297,1.576996-.347956,1.88-1.1.03424-.118101.108478-.220621.21-.29.10683-.037346.22317-.037346.33,0l.66.24c.118072.019605.220007.093693.275102.199947s.05691.232256.004898.340053c-.49,1.38-1.61,2.07-3.37,2.07-.943689.061261-1.874742-.243121-2.6-.85-.632502-.621411-.967577-1.484592-.92-2.37v-2.7c-.044361-.878993.29066-1.734753.92-2.35Z" fill="#fff"/></svg>
