<svg id="esrtgHDPbpd1" xmlns="http://www.w3.org/2000/svg" xmlns:xlink="http://www.w3.org/1999/xlink" viewBox="0 0 64 64" shape-rendering="geometricPrecision" text-rendering="geometricPrecision"><defs><linearGradient id="esrtgHDPbpd4-fill" x1="23.73" y1="19.16" x2="39.18" y2="45.93" spreadMethod="pad" gradientUnits="userSpaceOnUse" gradientTransform="translate(0 0)"><stop id="esrtgHDPbpd4-fill-0" offset="0%" stop-color="rgba(81,90,105,0.05)"/><stop id="esrtgHDPbpd4-fill-1" offset="45%" stop-color="rgba(107,114,128,0.05)"/><stop id="esrtgHDPbpd4-fill-2" offset="100%" stop-color="rgba(56,67,84,0.1)"/></linearGradient><linearGradient id="esrtgHDPbpd4-stroke" x1="23.48" y1="18.73" x2="39.43" y2="46.36" spreadMethod="pad" gradientUnits="userSpaceOnUse" gradientTransform="translate(0 0)"><stop id="esrtgHDPbpd4-stroke-0" offset="0%" stop-color="#d4d7dd"/><stop id="esrtgHDPbpd4-stroke-1" offset="45%" stop-color="#d4d7dd"/><stop id="esrtgHDPbpd4-stroke-2" offset="100%" stop-color="#bec1c6"/></linearGradient></defs><circle r="4.5" transform="translate(32 42)" fill="#ef4444"/><path d="M32,27v15" fill="none" stroke="#ef4444" stroke-width="3" stroke-linecap="round" stroke-miterlimit="10"/><path d="M39,41.9c0,3.865993-3.134007,7-7,7s-7-3.134007-7-7c-.007506-2.315545,1.111482-4.490111,3-5.83v-17c0-2.209139,1.790861-4,4-4s4,1.790861,4,4v17c1.888518,1.339889,3.007506,3.514455,3,5.83ZM32.5,25h3.5m-3.5-4h3.5m-3.5,8h3.5" fill="url(#esrtgHDPbpd4-fill)" stroke="url(#esrtgHDPbpd4-stroke)" stroke-linecap="round" stroke-linejoin="round"/><path d="M42.72,34.92c-.698344.699662-1.780063.841849-2.635495.346423s-1.27043-1.504441-1.011099-2.458358s1.128072-1.613935,2.116594-1.608065c.883778-.004621,1.682062.5272,2.018233,1.344557s.143058,1.756931-.488233,2.375443Zm-2.21-.86c.177181.184843.424036.286489.68.28.255509.004054.501428-.097207.68-.28.184341-.17337.286164-.417016.28-.67.004054-.255509-.097207-.501428-.28-.68-.172283-.19295-.421493-.29923-.68-.29-.257992-.006495-.5061.099315-.68.29-.182793.178572-.284054.424491-.28.68-.006164.252984.095659.49663.28.67Zm10.38-2.65c.082567.096947.122262.223249.11.35v.66c.013458.126873-.026382.253636-.11.35-.102569.078601-.231586.114439-.36.1h-4.09v2.46h3.44c.127993-.009696.255346.025679.36.1.082163.101089.12163.230252.11.36v.65c.01163.129748-.027837.258911-.11.36-.10303.077672-.231671.113406-.36.1h-3.44v3.44c.030479.127091-.006491.260927-.097885.354352s-.224385.133327-.352115.105648h-.76c-.127993.009696-.255346-.025679-.36-.1-.086335-.098818-.126359-.229803-.11-.36v-8.58c-.017441-.12724.022905-.255614.11-.35.102569-.078601.231586-.114439.36-.1h5.3c.128414-.014439.257431.021399.36.1Z" fill="#fff"/></svg>
